<svg xmlns="http://www.w3.org/2000/svg" width="280" height="280" viewBox="0 0 280 280" role="img" aria-label="微信二维码占位图">
  <rect width="280" height="280" fill="#fff"/>
  <rect x="16" y="16" width="248" height="248" rx="8" fill="#f6f5f0"/>
  <g fill="#1f1d18">
    <rect x="32" y="32" width="64" height="64"/><rect x="44" y="44" width="40" height="40" fill="#f6f5f0"/><rect x="56" y="56" width="16" height="16"/>
    <rect x="184" y="32" width="64" height="64"/><rect x="196" y="44" width="40" height="40" fill="#f6f5f0"/><rect x="208" y="56" width="16" height="16"/>
    <rect x="32" y="184" width="64" height="64"/><rect x="44" y="196" width="40" height="40" fill="#f6f5f0"/><rect x="56" y="208" width="16" height="16"/>
    <rect x="116" y="32" width="16" height="16"/><rect x="148" y="32" width="16" height="16"/>
    <rect x="116" y="64" width="48" height="16"/><rect x="132" y="96" width="16" height="16"/><rect x="164" y="96" width="16" height="16"/>
    <rect x="104" y="128" width="16" height="16"/><rect x="136" y="128" width="48" height="16"/><rect x="216" y="128" width="32" height="16"/>
    <rect x="32" y="120" width="48" height="16"/><rect x="64" y="152" width="16" height="16"/><rect x="96" y="152" width="32" height="16"/>
    <rect x="144" y="160" width="16" height="16"/><rect x="176" y="160" width="48" height="16"/><rect x="240" y="160" width="16" height="16"/>
    <rect x="120" y="192" width="48" height="16"/><rect x="184" y="192" width="16" height="16"/><rect x="232" y="192" width="16" height="16"/>
    <rect x="120" y="224" width="16" height="16"/><rect x="152" y="224" width="32" height="16"/><rect x="200" y="224" width="48" height="16"/>
  </g>
  <rect x="76" y="122" width="128" height="36" rx="18" fill="#fff"/>
  <text x="140" y="146" text-anchor="middle" font-size="16" font-family="Arial, sans-serif" font-weight="700" fill="#2f6f63">微信占位码</text>
</svg>
